<svg xmlns="http://www.w3.org/2000/svg" width="150" height="112" fill="#fdb515" xmlns:v="https://vecta.io/nano"><path d="M11.913 88.094c4.655 0 7.431-2.721 7.431-5.889 0-2.496-1.514-4.094-4.011-4.964 1.402-.842 2.608-2.384 2.608-4.235 0-3.002-2.496-4.852-6.872-4.852l-4.094.169c-1.767 0-2.945-.141-3.674-.141-.448 0-.673.253-.673.617 0 .309.169.561.758.673 1.514.224 1.879.532 1.879 1.29l.055 7.32-.055 7.375c-.028.813-.309 1.037-1.822 1.178-.589.084-.758.365-.758.673 0 .365.224.617.673.617l3.617-.057 4.936.224h0l.002.002zM8.661 70.763c0-.561.141-.785.561-.954.336-.112.842-.167 1.626-.167 2.327 0 3.758 1.262 3.758 3.729 0 1.374-.448 2.525-1.178 3.393-1.431-.253-3.057-.336-4.824-.253l.057-5.749zM9.81 86.384c-.842-.196-1.123-.477-1.149-1.486l-.057-6.815h0v-.057c4.767-.112 7.263.954 7.263 4.431 0 2.046-1.457 4.094-4.402 4.094-.758 0-1.235-.055-1.655-.167zm17.106 1.767c2.439 0 4.123-1.206 5.132-2.411.448-.532.167-1.009-.281-1.009-.112 0-.224.057-.336.112-1.178.729-2.103 1.123-3.365 1.123-2.776 0-4.431-2.439-4.431-5.217h0v-.055l8.217-1.571c.365-.084.617-.365.532-.785-.448-2.019-2.299-4.235-5.496-4.235s-6.141 2.973-6.141 7.263c0 4.037 2.608 6.786 6.169 6.786zm-.196-12.619c1.795 0 2.608 1.626 2.608 2.272a.42.42 0 0 1-.365.448l-5.244 1.094c.336-2.552 1.598-3.815 3-3.815zm6.813 12.395l2.945-.084 3.253.084c.393 0 .589-.253.589-.532 0-.309-.167-.561-.729-.644-1.431-.169-1.571-.309-1.598-.897l-.055-4.712h0v-2.356c1.457-1.934 2.132-2.327 2.861-2.327.868 0 1.598 1.094 1.963 1.094.196 0 .308-.057.448-.336l.842-1.71c.167-.365.084-.561-.253-.785-.673-.448-1.374-.758-2.075-.758-1.235 0-2.356 1.037-3.758 3.338l.055-3.057c0-.365-.224-.448-.532-.365-1.457.393-2.833.617-4.011.701-.477.055-.644.253-.644.561s.169.532.701.617c1.233.224 1.374.365 1.402.981l.057 4.402-.057 4.712c-.028.589-.112.729-1.345.897-.505.112-.673.336-.673.644 0 .281.196.532.617.532zm10.404 0l2.973-.084 3 .084c.42 0 .617-.253.617-.532 0-.309-.167-.532-.673-.644-1.262-.196-1.402-.281-1.402-.87l-.028-2.664 1.822-1.233 3.562 5.272c.365.532.561.644 1.149.644h3.084c.422 0 .644-.253.644-.561 0-.281-.112-.532-.701-.589-.785-.084-1.206-.477-1.879-1.347l-3.562-5.188c0-.028.028-.028.055-.055 2.16-1.879 3.589-3.309 4.655-4.712.141-.196.224-.365.224-.534 0-.336-.224-.561-.673-.532-1.318.112-2.525.112-4.011.028-.589-.028-.758.253-.758.534 0 .253.196.532.589.617h0l.561.141c.925.224.925.982-.224 2.187-1.233 1.318-2.833 2.58-4.571 3.674h0v-3.477l.084-10.544c0-.365-.224-.448-.534-.365a28.09 28.09 0 0 1-4.009.701c-.477.028-.673.253-.673.532 0 .309.196.532.729.617 1.233.224 1.374.365 1.402 1.009l.055 8.048-.055 7.795c-.028.589-.141.673-1.402.87-.505.112-.673.336-.673.644 0 .281.196.532.617.532zm20.247.224c2.439 0 4.123-1.206 5.132-2.411.448-.532.167-1.009-.281-1.009-.112 0-.224.057-.336.112-1.178.729-2.103 1.123-3.365 1.123-2.776 0-4.431-2.439-4.431-5.217h0v-.055l8.217-1.571c.365-.084.617-.365.532-.785-.448-2.019-2.299-4.235-5.496-4.235s-6.142 2.973-6.142 7.263c0 4.037 2.608 6.786 6.169 6.786zm-.196-12.619c1.795 0 2.608 1.626 2.608 2.272a.42.42 0 0 1-.365.448l-5.244 1.094c.336-2.552 1.599-3.815 3-3.815zm6.338 12.395l3.028-.084 3.085.084c.42 0 .617-.253.617-.532 0-.309-.196-.589-.673-.644-1.262-.141-1.486-.281-1.486-.87l-.055-7.795.084-10.544c0-.365-.224-.448-.534-.365-1.457.365-2.861.589-4.011.701-.477.028-.673.253-.673.532 0 .309.196.532.729.617 1.233.224 1.374.365 1.402 1.009l.055 8.048-.055 7.795c-.028.589-.196.701-1.459.87-.504.055-.673.336-.673.644 0 .281.196.532.617.532zm13.096.224c2.439 0 4.123-1.206 5.132-2.411.448-.532.167-1.009-.281-1.009-.112 0-.224.057-.336.112-1.178.729-2.103 1.123-3.365 1.123-2.776 0-4.431-2.439-4.431-5.217h0v-.055l8.217-1.571c.365-.084.617-.365.532-.785-.448-2.019-2.299-4.235-5.496-4.235s-6.142 2.973-6.142 7.263c0 4.037 2.608 6.786 6.169 6.786zm-.197-12.619c1.795 0 2.608 1.626 2.608 2.272a.42.42 0 0 1-.365.448l-5.244 1.094c.336-2.552 1.599-3.815 3-3.815zm8.751 19.153c1.402 0 2.721-1.037 5.356-6.562 1.795-3.925 3.141-7.404 4.543-10.964.448-1.149.673-1.374 1.374-1.571.505-.141.701-.336.701-.644 0-.281-.167-.534-.589-.534-.617 0-1.347.084-2.187.084s-1.514-.084-2.16-.084c-.393 0-.589.224-.589.505 0 .309.196.505.644.644 1.235.336 1.347.87.87 2.327-.758 2.299-1.598 4.514-2.888 7.459-1.094-2.721-2.019-5.16-2.945-7.907-.336-1.066-.224-1.514 1.094-1.879.504-.141.673-.308.673-.617s-.224-.534-.617-.534c-.842 0-1.71.084-2.861.084-1.235 0-2.132-.084-3-.084-.422 0-.617.253-.617.534 0 .336.167.505.673.644.644.167.842.393 1.235 1.402l4.712 11.834c-1.206 2.215-2.103 2.721-3.309 2.945-.982.169-1.626.786-1.626 1.571 0 .644.448 1.345 1.514 1.345zM9.221 62.772c3.786 0 6.703-2.973 6.703-7.179s-2.916-6.982-6.534-6.982c-3.813 0-6.703 3-6.703 7.179s2.916 6.982 6.534 6.982h0 0zm.309-1.598c-2.019 0-3.758-2.103-3.758-6.028 0-3.085 1.318-4.964 3.336-4.964s3.729 2.103 3.729 6.057c0 3.057-1.318 4.936-3.309 4.936zm7.851 1.29l2.861-.084 3 .084c.422 0 .617-.253.617-.532 0-.308-.167-.561-.758-.644-1.206-.141-1.318-.308-1.345-.925l-.055-7.74-.028-2.132 2.439.055a.72.72 0 0 0 .813-.758.72.72 0 0 0-.813-.758l-2.468.028-.028-2.973c0-2.103.644-3.589 2.271-3.589 1.795 0 1.543 2.075 3.028 2.075.758 0 1.206-.532 1.206-1.235 0-1.262-1.571-2.327-3.701-2.327-3.786 0-5.833 2.525-5.692 6.562l.028 1.486c-.505 0-1.009-.028-1.543-.028-.532-.028-.813.309-.813.758s.281.785.813.758l1.543-.055h0v2.132l-.057 7.74c-.028.617-.112.758-1.262.925-.505.112-.673.336-.673.644 0 .281.196.532.617.532zm23.444.336c2.384 0 4.599-.673 6.703-2.048.589-.365.758-.758.758-1.149l.028-2.075c-.028-.477-.253-.758-.644-.758-.308 0-.532.196-.644.617-.729 2.439-2.916 3.758-5.692 3.758-4.094 0-7.179-3.393-7.179-8.525s2.916-8.582 7.235-8.582c2.804 0 4.487 1.037 5.413 3.224.196.448.365.673.729.673.393 0 .561-.281.589-.729.028-.644.028-1.655.028-2.271 0-.422-.141-.758-.758-1.094-1.486-.813-3.562-1.402-5.777-1.402-6.562 0-11.049 4.514-11.049 10.487s4.206 9.872 10.263 9.872zm12.085.028c1.794 0 3.589-1.598 4.402-2.608.336 1.374.981 2.244 1.71 2.635a.47.47 0 0 0 .505.028h0l2.103-.925c.336-.141.336-.393.084-.589-.925-.589-1.683-1.599-1.683-3.422l.028-5.665c0-2.804-2.132-3.646-4.487-3.646-3.561 0-5.918 2.327-5.918 4.039 0 1.037.589 1.429 1.347 1.429.842 0 1.431-.729 1.431-1.29 0-.477-.057-.842-.057-1.262 0-.561.897-1.486 2.58-1.486 1.347 0 2.16.785 2.16 2.468h0v2.019c-4.375 1.066-7.459 2.468-7.459 5.132 0 1.879 1.149 3.141 3.253 3.141zm-.224-3.729c0-1.655 1.683-2.721 4.402-3.422h0v2.327a18.17 18.17 0 0 0 .055 1.262c-.897.897-2.019 1.514-2.861 1.514-.954 0-1.598-.561-1.598-1.683zm10.487 3.365c.87 0 1.767-.084 2.833-.084s1.991.084 2.861.084c.42 0 .617-.253.617-.532 0-.308-.167-.532-.673-.644-1.149-.167-1.262-.281-1.262-.87l-.055-7.795.084-10.544c0-.365-.224-.448-.532-.365-1.457.365-2.861.589-4.011.701-.477.028-.673.253-.673.532 0 .309.196.532.729.617 1.233.224 1.374.365 1.402 1.009l.057 8.048-.057 7.795c-.028.589-.112.701-1.262.87-.505.112-.673.336-.673.644 0 .281.196.532.617.532zm10.432-15.928c1.149 0 1.963-.897 1.963-1.879 0-1.094-.842-1.879-1.963-1.879s-1.934.897-1.934 1.879c0 1.094.842 1.879 1.934 1.879zM70.83 62.464c.868 0 1.795-.084 2.861-.084s1.963.084 2.833.084c.42 0 .617-.253.617-.532 0-.308-.167-.532-.673-.644-1.149-.167-1.233-.308-1.262-.925-.055-1.543-.055-2.889-.055-4.683l.084-6.898c0-.365-.224-.448-.532-.365-1.459.393-2.833.617-4.011.701-.477.055-.644.253-.644.561s.167.532.701.617c1.235.224 1.374.365 1.402.982.055 1.402.055 2.888.055 4.402l-.055 4.683c-.028.617-.112.758-1.262.925-.505.112-.673.336-.673.644 0 .281.196.532.617.532zm7.655 0c.868 0 1.794-.084 2.861-.084 1.009 0 2.187.084 3 .084.42 0 .617-.253.617-.532 0-.308-.169-.561-.758-.644-1.206-.141-1.318-.308-1.347-.925l-.055-7.74-.028-2.132c.842 0 1.626.028 2.439.055a.72.72 0 0 0 .813-.758.72.72 0 0 0-.813-.758c-.842.028-1.599.028-2.468.028l-.028-2.973c0-2.103.644-3.589 2.272-3.589 1.795 0 1.543 2.075 3.028 2.075.758 0 1.206-.532 1.206-1.235 0-1.262-1.571-2.327-3.701-2.327-3.786 0-5.833 2.525-5.692 6.562 0 .448.028.954.028 1.486-.505 0-1.009-.028-1.543-.028-.532-.028-.813.309-.813.758s.281.785.813.758 1.037-.028 1.543-.055h0v2.132l-.055 7.74c-.028.617-.112.758-1.262.925-.505.112-.673.336-.673.644 0 .281.196.532.617.532zm13.937.308c3.786 0 6.703-2.973 6.703-7.179s-2.916-6.982-6.534-6.982c-3.813 0-6.703 3-6.703 7.179s2.916 6.982 6.534 6.982zm.308-1.598c-2.019 0-3.758-2.103-3.758-6.028 0-3.085 1.318-4.964 3.338-4.964s3.729 2.103 3.729 6.057c0 3.057-1.318 4.936-3.309 4.936zm7.768 1.29c.897 0 1.851-.084 2.945-.084s2.356.084 3.253.084c.393 0 .589-.253.589-.532 0-.308-.169-.561-.729-.644-1.431-.167-1.571-.308-1.598-.897-.057-1.543-.057-2.916-.057-4.712h0v-2.356c1.459-1.934 2.132-2.327 2.861-2.327.87 0 1.599 1.094 1.963 1.094.196 0 .308-.055.448-.336l.842-1.71c.167-.365.084-.561-.253-.785-.673-.448-1.374-.758-2.075-.758-1.235 0-2.356 1.037-3.758 3.338 0-.925.028-1.934.055-3.057 0-.365-.224-.448-.532-.365-1.457.393-2.833.617-4.011.701-.477.055-.644.253-.644.561s.167.532.701.617c1.235.224 1.374.365 1.402.982.057 1.402.057 2.888.057 4.402l-.057 4.712c-.028.589-.112.729-1.345.897-.505.112-.673.336-.673.644 0 .281.196.532.617.532zm11.833 0c.87 0 1.795-.084 2.861-.084 1.009 0 1.879.084 2.749.084.42 0 .617-.253.617-.532 0-.308-.167-.532-.617-.644-1.123-.167-1.206-.308-1.235-.925-.055-1.543-.055-2.889-.055-4.683h0v-3.45c.842-.842 1.963-1.457 2.973-1.457 1.543 0 2.132.981 2.187 2.384.028.897.028 1.598.028 2.525l-.057 4.683c-.028.617-.112.758-1.233.925-.448.112-.589.336-.589.644 0 .281.196.532.589.532.868 0 1.738-.084 2.776-.084s1.963.084 2.833.084c.42 0 .617-.253.617-.532 0-.308-.169-.532-.673-.644-1.149-.196-1.235-.308-1.262-.925-.057-1.543-.057-2.889-.057-4.683l.028-2.804c.084-2.747-1.486-4.235-3.674-4.235-1.626 0-3.196.87-4.459 2.215l.028-2.075c0-.365-.224-.448-.532-.365-1.457.393-2.804.617-3.982.701-.477.055-.644.253-.644.561s.167.532.701.617c1.233.224 1.374.365 1.402.982.057 1.402.057 2.888.057 4.402l-.057 4.683c-.028.617-.112.729-1.262.925-.505.112-.673.336-.673.644 0 .281.196.532.617.532zm18.48-15.928c1.149 0 1.963-.897 1.963-1.879 0-1.094-.842-1.879-1.963-1.879s-1.934.897-1.934 1.879c0 1.094.842 1.879 1.934 1.879zm-2.776 15.928c.87 0 1.795-.084 2.861-.084s1.963.084 2.833.084c.422 0 .617-.253.617-.532 0-.308-.167-.532-.673-.644-1.149-.167-1.235-.308-1.262-.925-.055-1.543-.055-2.889-.055-4.683l.084-6.898c0-.365-.224-.448-.532-.365-1.457.393-2.833.617-4.011.701-.477.055-.644.253-.644.561s.169.532.701.617c1.233.224 1.374.365 1.402.982.055 1.402.055 2.888.055 4.402l-.055 4.683c-.028.617-.112.758-1.262.925-.505.112-.673.336-.673.644 0 .281.196.532.617.532zm10.685.365c1.795 0 3.589-1.598 4.402-2.608.336 1.374.981 2.244 1.71 2.635a.47.47 0 0 0 .505.028h0l2.103-.925c.336-.141.336-.393.084-.589-.925-.589-1.683-1.599-1.683-3.422l.028-5.665c0-2.804-2.132-3.646-4.487-3.646-3.561 0-5.916 2.327-5.916 4.039 0 1.037.589 1.429 1.345 1.429.842 0 1.431-.729 1.431-1.29 0-.477-.055-.842-.055-1.262 0-.561.897-1.486 2.58-1.486 1.347 0 2.16.785 2.16 2.468h0v2.019c-4.375 1.066-7.459 2.468-7.459 5.132 0 1.879 1.149 3.141 3.253 3.141zm-.224-3.729c0-1.655 1.683-2.721 4.402-3.422h0v2.327a18.17 18.17 0 0 0 .055 1.262c-.897.897-2.019 1.514-2.861 1.514-.954 0-1.598-.561-1.598-1.683z"/><path d="M12.812 37.338c4.851 0 8.048-3 8.048-8.301h0v-1.879l.028-7.571c.028-.589.309-.842 1.851-.982.532-.084.701-.365.701-.673 0-.365-.224-.617-.644-.617-.897 0-1.767.084-2.888.084s-2.048-.084-2.973-.084c-.422 0-.644.253-.644.617 0 .281.167.561.729.644 1.626.167 1.907.42 1.907 1.009l.055 7.571h0v1.655c0 4.151-2.046 6.253-5.468 6.253s-5.327-2.187-5.327-6.057h0v-1.851l.057-7.571c0-.589.281-.842 1.822-.982.561-.084.729-.365.729-.673 0-.365-.224-.617-.673-.617-1.066 0-2.132.084-3.589.084s-2.496-.084-3.589-.084c-.422 0-.644.253-.644.617 0 .308.167.589.729.673 1.543.141 1.822.393 1.822.982l.057 7.571h0v2.215c0 5.244 3.028 7.964 7.907 7.964h0l-.005.002zm11.019-.336c.868 0 1.795-.084 2.861-.084 1.009 0 1.879.084 2.747.084.42 0 .617-.253.617-.532 0-.308-.169-.532-.617-.644-1.123-.167-1.206-.308-1.235-.925-.055-1.543-.055-2.888-.055-4.683h0v-3.45c.842-.842 1.963-1.457 2.973-1.457 1.543 0 2.132.982 2.187 2.384.028.897.028 1.599.028 2.525l-.055 4.683c-.028.617-.112.758-1.235.925-.448.112-.589.336-.589.644 0 .281.196.532.589.532.87 0 1.738-.084 2.776-.084s1.963.084 2.833.084c.422 0 .617-.253.617-.532 0-.308-.167-.532-.673-.644-1.149-.196-1.235-.308-1.262-.925-.055-1.543-.055-2.888-.055-4.683l.028-2.804c.084-2.747-1.486-4.235-3.674-4.235-1.626 0-3.197.868-4.459 2.215l.028-2.075c0-.365-.224-.448-.532-.365-1.457.393-2.804.617-3.982.701-.477.057-.644.253-.644.561s.167.532.701.617c1.235.224 1.374.365 1.402.982.055 1.402.055 2.888.055 4.402l-.055 4.683c-.028.617-.112.729-1.262.925-.505.112-.673.336-.673.644 0 .281.196.532.617.532zm18.48-15.928c1.149 0 1.963-.897 1.963-1.879 0-1.094-.842-1.879-1.963-1.879s-1.934.897-1.934 1.879c0 1.094.842 1.879 1.934 1.879zm-2.776 15.928c.87 0 1.795-.084 2.861-.084s1.963.084 2.833.084c.42 0 .617-.253.617-.532 0-.308-.169-.532-.673-.644-1.149-.167-1.233-.308-1.262-.925-.057-1.543-.057-2.888-.057-4.683l.084-6.898c0-.365-.224-.448-.532-.365-1.457.393-2.833.617-4.011.701-.477.057-.644.253-.644.561s.167.532.701.617c1.235.224 1.374.365 1.402.982.055 1.402.055 2.888.055 4.402l-.055 4.683c-.028.617-.112.758-1.262.925-.505.112-.673.336-.673.644 0 .281.196.532.617.532zm13.069.532c.561 0 .842-.448 1.066-1.037l4.375-10.263c.477-1.123.729-1.374 1.486-1.571.504-.141.644-.308.644-.644 0-.281-.167-.532-.589-.532-.617 0-1.345.084-2.187.084s-1.514-.084-2.16-.084c-.393 0-.589.224-.589.505 0 .336.167.505.644.644 1.149.308 1.345.897.813 2.327-.897 2.468-1.738 4.486-2.692 6.674-1.037-2.356-1.934-4.514-2.945-7.123-.336-1.066-.224-1.543.981-1.879.505-.141.673-.309.673-.644 0-.281-.224-.505-.617-.505-.842 0-1.712.084-2.861.084-1.233 0-2.132-.084-3-.084-.42 0-.617.253-.617.532 0 .336.167.505.673.644.701.196.954.365 1.345 1.374 1.683 3.758 3 6.815 4.487 10.459.253.589.477 1.037 1.066 1.037zm13.123-.308c2.439 0 4.123-1.206 5.132-2.411.448-.532.167-1.009-.281-1.009-.112 0-.224.055-.336.112-1.178.729-2.103 1.121-3.365 1.121-2.776 0-4.431-2.439-4.431-5.215h0v-.057c2.747-.393 5.441-.925 8.217-1.571.365-.084.617-.365.534-.785-.448-2.019-2.299-4.235-5.496-4.235s-6.141 2.972-6.141 7.263c0 4.037 2.608 6.786 6.169 6.786zm-.196-12.619c1.795 0 2.608 1.626 2.608 2.271 0 .224-.112.393-.365.448-1.514.393-3.338.756-5.244 1.094.336-2.552 1.598-3.813 3-3.813zm6.815 12.395c.897 0 1.851-.084 2.945-.084s2.356.084 3.253.084c.393 0 .589-.253.589-.532 0-.308-.167-.561-.729-.644-1.431-.167-1.571-.308-1.599-.897-.055-1.543-.055-2.916-.055-4.712h0v-2.356c1.457-1.934 2.132-2.327 2.861-2.327.87 0 1.598 1.094 1.963 1.094.196 0 .308-.055.448-.336l.842-1.712c.167-.365.084-.561-.253-.785-.673-.448-1.374-.758-2.075-.758-1.235 0-2.356 1.037-3.758 3.338 0-.925.028-1.934.055-3.057 0-.365-.224-.448-.532-.365-1.457.393-2.833.617-4.011.701-.477.057-.644.253-.644.561s.169.532.701.617c1.233.224 1.374.365 1.402.982.055 1.402.055 2.888.055 4.402l-.055 4.712c-.028.589-.112.729-1.347.897-.505.112-.673.336-.673.644 0 .281.196.532.617.532zm15.339.308c2.973 0 5.244-1.712 5.244-4.375 0-4.459-6.815-3.758-6.815-6.505 0-.954.729-1.767 2.075-1.767s2.411.758 3.028 2.327c.141.365.308.505.589.505.336 0 .505-.224.532-.758 0-.532 0-1.206-.057-1.655-.028-.477-.141-.785-.589-1.037-.758-.505-2.048-.868-3.477-.868-2.916 0-4.936 1.738-4.936 4.151 0 4.402 6.786 3.561 6.786 6.478 0 1.094-.925 1.991-2.468 1.991-1.738 0-2.888-.87-3.448-2.721-.141-.448-.336-.561-.589-.561-.336 0-.561.224-.561.729a14.93 14.93 0 0 0 .055 1.934c.057.477.196.758.589 1.037.813.644 2.271 1.094 4.037 1.094zm9.646-16.236c1.149 0 1.963-.897 1.963-1.879 0-1.094-.842-1.879-1.963-1.879s-1.934.897-1.934 1.879c0 1.094.842 1.879 1.934 1.879zm-2.776 15.928c.868 0 1.794-.084 2.861-.084s1.963.084 2.833.084c.42 0 .617-.253.617-.532 0-.308-.167-.532-.673-.644-1.149-.167-1.233-.308-1.262-.925-.055-1.543-.055-2.888-.055-4.683l.084-6.898c0-.365-.224-.448-.534-.365-1.457.393-2.833.617-4.011.701-.477.057-.644.253-.644.561s.169.532.701.617c1.233.224 1.374.365 1.402.982.055 1.402.055 2.888.055 4.402l-.055 4.683c-.028.617-.112.758-1.262.925-.505.112-.673.336-.673.644 0 .281.196.532.617.532zm11.973.253c1.457 0 2.833-.701 3.786-1.655.42-.42.141-.925-.253-.925-.141 0-.281.057-.532.196-.505.253-.982.393-1.543.393-1.206 0-1.738-.758-1.738-2.019h0v-8.188c1.121-.028 2.158 0 3.253.028.505.028.785-.336.785-.785s-.281-.758-.785-.729c-1.094.028-2.132.028-3.253.028l.028-2.58c0-.617-.617-.758-1.066-.281-1.235 1.571-2.384 2.58-3.393 3.224-.477.308-.532.448-.532.673 0 .253.253.448.617.448h0 1.345v8.722c-.028 2.244 1.066 3.448 3.281 3.448zm7.292 6.505c1.402 0 2.721-1.037 5.356-6.562 1.795-3.927 3.141-7.404 4.543-10.964.448-1.149.673-1.374 1.374-1.571.505-.141.701-.336.701-.644 0-.281-.167-.532-.589-.532-.617 0-1.345.084-2.187.084s-1.514-.084-2.16-.084c-.393 0-.589.224-.589.505 0 .308.196.505.644.644 1.233.336 1.345.87.868 2.327-.756 2.299-1.598 4.514-2.888 7.459-1.094-2.721-2.019-5.16-2.945-7.907-.336-1.066-.224-1.514 1.094-1.879.505-.141.673-.309.673-.617s-.224-.532-.617-.532c-.842 0-1.71.084-2.861.084-1.233 0-2.132-.084-3-.084-.42 0-.617.253-.617.532 0 .336.169.505.673.644.644.167.842.393 1.233 1.402l4.712 11.834c-1.206 2.215-2.103 2.721-3.309 2.945-.982.167-1.626.785-1.626 1.571 0 .644.448 1.345 1.514 1.345z"/></svg>